<mxfile host="app.diagrams.net" modified="2024-04-22T06:58:05.765Z" agent="Mozilla/5.0 (Windows NT 10.0; Win64; x64; rv:125.0) Gecko/20100101 Firefox/125.0" etag="OvrSKnGYBcyNVs691fdv" version="24.2.2" type="github">
  <diagram name="Page-1" id="ad52d381-51e7-2e0d-a935-2d0ddd2fd229">
    <mxGraphModel dx="1418" dy="742" grid="1" gridSize="10" guides="1" tooltips="1" connect="1" arrows="1" fold="1" page="1" pageScale="1" pageWidth="1100" pageHeight="850" background="none" math="0" shadow="0">
      <root>
        <mxCell id="0" />
        <mxCell id="1" parent="0" />
        <mxCell id="qfP9910NU0od4Aanm2vN-13" style="edgeStyle=orthogonalEdgeStyle;rounded=0;orthogonalLoop=1;jettySize=auto;html=1;exitX=1;exitY=0.25;exitDx=0;exitDy=0;entryX=0;entryY=0.25;entryDx=0;entryDy=0;startArrow=classic;startFill=1;" edge="1" parent="1" source="qfP9910NU0od4Aanm2vN-1" target="qfP9910NU0od4Aanm2vN-3">
          <mxGeometry relative="1" as="geometry" />
        </mxCell>
        <mxCell id="qfP9910NU0od4Aanm2vN-21" style="edgeStyle=orthogonalEdgeStyle;rounded=0;orthogonalLoop=1;jettySize=auto;html=1;exitX=1;exitY=0.5;exitDx=0;exitDy=0;entryX=0;entryY=0.5;entryDx=0;entryDy=0;startArrow=classic;startFill=1;" edge="1" parent="1" source="qfP9910NU0od4Aanm2vN-1" target="qfP9910NU0od4Aanm2vN-4">
          <mxGeometry relative="1" as="geometry" />
        </mxCell>
        <mxCell id="qfP9910NU0od4Aanm2vN-1" value="Home Page" style="rounded=0;whiteSpace=wrap;html=1;fillColor=#dae8fc;strokeColor=#6c8ebf;" vertex="1" parent="1">
          <mxGeometry x="200" y="80" width="120" height="60" as="geometry" />
        </mxCell>
        <mxCell id="qfP9910NU0od4Aanm2vN-16" style="edgeStyle=orthogonalEdgeStyle;rounded=0;orthogonalLoop=1;jettySize=auto;html=1;exitX=1;exitY=1;exitDx=0;exitDy=0;entryX=0;entryY=0.75;entryDx=0;entryDy=0;startArrow=classic;startFill=1;" edge="1" parent="1" target="qfP9910NU0od4Aanm2vN-5">
          <mxGeometry relative="1" as="geometry">
            <mxPoint x="210" y="340" as="sourcePoint" />
            <mxPoint x="350" y="470" as="targetPoint" />
            <Array as="points">
              <mxPoint x="210" y="470" />
            </Array>
          </mxGeometry>
        </mxCell>
        <mxCell id="qfP9910NU0od4Aanm2vN-20" style="edgeStyle=orthogonalEdgeStyle;rounded=0;orthogonalLoop=1;jettySize=auto;html=1;exitX=1;exitY=0.5;exitDx=0;exitDy=0;entryX=0;entryY=0.75;entryDx=0;entryDy=0;startArrow=classic;startFill=1;" edge="1" parent="1" source="qfP9910NU0od4Aanm2vN-2" target="qfP9910NU0od4Aanm2vN-3">
          <mxGeometry relative="1" as="geometry">
            <Array as="points">
              <mxPoint x="450" y="310" />
              <mxPoint x="450" y="125" />
            </Array>
          </mxGeometry>
        </mxCell>
        <mxCell id="qfP9910NU0od4Aanm2vN-2" value="Chat Screen" style="rounded=0;whiteSpace=wrap;html=1;fillColor=#f8cecc;strokeColor=#b85450;" vertex="1" parent="1">
          <mxGeometry x="150" y="280" width="120" height="60" as="geometry" />
        </mxCell>
        <mxCell id="qfP9910NU0od4Aanm2vN-14" style="edgeStyle=orthogonalEdgeStyle;rounded=0;orthogonalLoop=1;jettySize=auto;html=1;exitX=0.75;exitY=1;exitDx=0;exitDy=0;entryX=0.25;entryY=0;entryDx=0;entryDy=0;startArrow=classic;startFill=1;" edge="1" parent="1" source="qfP9910NU0od4Aanm2vN-3" target="qfP9910NU0od4Aanm2vN-4">
          <mxGeometry relative="1" as="geometry" />
        </mxCell>
        <mxCell id="qfP9910NU0od4Aanm2vN-19" style="edgeStyle=orthogonalEdgeStyle;rounded=0;orthogonalLoop=1;jettySize=auto;html=1;exitX=0;exitY=1;exitDx=0;exitDy=0;startArrow=classic;startFill=1;" edge="1" parent="1" source="qfP9910NU0od4Aanm2vN-3">
          <mxGeometry relative="1" as="geometry">
            <mxPoint x="480" y="420" as="targetPoint" />
          </mxGeometry>
        </mxCell>
        <mxCell id="qfP9910NU0od4Aanm2vN-3" value="Search Screen" style="rounded=0;whiteSpace=wrap;html=1;fillColor=#fff2cc;strokeColor=#d6b656;" vertex="1" parent="1">
          <mxGeometry x="610" y="80" width="120" height="60" as="geometry" />
        </mxCell>
        <mxCell id="qfP9910NU0od4Aanm2vN-4" value="Accounts Screen" style="rounded=0;whiteSpace=wrap;html=1;fillColor=#ffe6cc;strokeColor=#d79b00;" vertex="1" parent="1">
          <mxGeometry x="670" y="280" width="120" height="60" as="geometry" />
        </mxCell>
        <mxCell id="qfP9910NU0od4Aanm2vN-17" style="edgeStyle=orthogonalEdgeStyle;rounded=0;orthogonalLoop=1;jettySize=auto;html=1;exitX=1;exitY=0.5;exitDx=0;exitDy=0;startArrow=classic;startFill=1;" edge="1" parent="1" source="qfP9910NU0od4Aanm2vN-5" target="qfP9910NU0od4Aanm2vN-4">
          <mxGeometry relative="1" as="geometry" />
        </mxCell>
        <mxCell id="qfP9910NU0od4Aanm2vN-5" value="My Space Screen" style="rounded=0;whiteSpace=wrap;html=1;fillColor=#f5f5f5;fontColor=#333333;strokeColor=#666666;" vertex="1" parent="1">
          <mxGeometry x="410" y="425" width="120" height="60" as="geometry" />
        </mxCell>
        <mxCell id="qfP9910NU0od4Aanm2vN-15" style="edgeStyle=orthogonalEdgeStyle;rounded=0;orthogonalLoop=1;jettySize=auto;html=1;exitX=0.25;exitY=1;exitDx=0;exitDy=0;entryX=0.664;entryY=0.018;entryDx=0;entryDy=0;entryPerimeter=0;startArrow=classic;startFill=1;" edge="1" parent="1" source="qfP9910NU0od4Aanm2vN-1" target="qfP9910NU0od4Aanm2vN-2">
          <mxGeometry relative="1" as="geometry" />
        </mxCell>
        <mxCell id="qfP9910NU0od4Aanm2vN-18" style="edgeStyle=orthogonalEdgeStyle;rounded=0;orthogonalLoop=1;jettySize=auto;html=1;exitX=1;exitY=1;exitDx=0;exitDy=0;entryX=0.587;entryY=-0.014;entryDx=0;entryDy=0;entryPerimeter=0;startArrow=block;startFill=1;" edge="1" parent="1" source="qfP9910NU0od4Aanm2vN-1" target="qfP9910NU0od4Aanm2vN-5">
          <mxGeometry relative="1" as="geometry">
            <Array as="points">
              <mxPoint x="320" y="282" />
              <mxPoint x="470" y="282" />
              <mxPoint x="470" y="424" />
            </Array>
          </mxGeometry>
        </mxCell>
        <mxCell id="qfP9910NU0od4Aanm2vN-22" value="&lt;b&gt;&lt;font color=&quot;#3399ff&quot; style=&quot;font-size: 18px;&quot;&gt;&lt;i&gt;Webbed Navigation : Navigate from One Screen to any other Screen&lt;br&gt;&lt;/i&gt;&lt;/font&gt;&lt;/b&gt;" style="text;html=1;align=center;verticalAlign=middle;resizable=0;points=[];autosize=1;strokeColor=none;fillColor=none;" vertex="1" parent="1">
          <mxGeometry x="150" y="13" width="610" height="40" as="geometry" />
        </mxCell>
      </root>
    </mxGraphModel>
  </diagram>
</mxfile>
